<?xml version="1.0" ?><!DOCTYPE svg  PUBLIC '-//W3C//DTD SVG 1.1//EN'  'http://www.w3.org/Graphics/SVG/1.1/DTD/svg11.dtd'><svg height="512px" id="Layer_1" style="enable-background:new 0 0 512 512;" version="1.1" viewBox="0 0 512 512" width="512px" xml:space="preserve" xmlns="http://www.w3.org/2000/svg" xmlns:xlink="http://www.w3.org/1999/xlink"><style type="text/css">
<![CDATA[
	.st0{fill:#319997;}
	.st1{fill-rule:evenodd;clip-rule:evenodd;fill:#319997;}
]]>
</style><g><path class="st0" d="M95.463,416.534c41.083,41.078,97.845,66.489,160.532,66.489c62.698,0,119.454-25.411,160.531-66.489   c41.084-41.083,66.495-97.839,66.495-160.537c0-62.688-25.411-119.448-66.495-160.532c-41.077-41.077-97.833-66.489-160.531-66.489   c-62.688,0-119.449,25.412-160.532,66.489c-41.083,41.084-66.489,97.845-66.489,160.532   C28.974,318.695,54.379,375.451,95.463,416.534 M255.995,0.003C397.383,0.003,512,114.614,512,255.997   c0,141.388-114.617,256-256.005,256C114.612,511.997,0,397.385,0,255.997C0,114.614,114.612,0.003,255.995,0.003z"/><path class="st1" d="M260.971,314.966h-9.997c-6.139,0-11.115,4.96-11.115,11.104v80.009c0,6.128,4.976,11.104,11.115,11.104h9.997   c6.128,0,11.104-4.971,11.104-11.099V326.07C272.074,319.931,267.099,314.966,260.971,314.966"/><path class="st1" d="M225.646,200.517V185.61c-0.358-1.42-1.241-2.309-2.662-2.655l-1.599,4.255v11.171l3.192,3.203   L225.646,200.517z"/><path class="st1" d="M225.646,218.604v-14.895l-1.068-1.073l-3.192,3.203v11.177l1.599,4.255   C224.416,220.901,225.3,220.035,225.646,218.604"/><path class="st1" d="M249.073,198.381l3.187,3.203l1.074-1.067V185.61c-0.364-1.42-1.247-2.309-2.667-2.655l-1.593,4.255V198.381z"/><path class="st1" d="M248,187.21l1.588-4.255h-15.896c-1.426,0.352-2.309,1.241-2.667,2.661l4.26,1.594H248z"/><path class="st1" d="M249.073,205.839v11.177l1.593,4.255c1.42-0.363,2.309-1.235,2.667-2.667v-14.895l-1.074-1.068   L249.073,205.839z"/><path class="st1" d="M233.63,221.265h15.968L248,217.01h-12.77l-4.261,1.588C231.327,220.035,232.21,220.901,233.63,221.265"/><polygon class="st1" points="235.229,205.839 232.031,202.636 230.958,203.709 230.958,217.536 235.229,215.942  "/><polygon class="st1" points="235.229,198.381 235.229,188.271 230.958,186.673 230.958,200.517 232.031,201.584  "/><polygon class="st1" points="262.9,225.52 262.9,217.01 258.64,217.01 258.64,225.52 260.77,227.65  "/><path class="st1" d="M286.31,217.01l1.599,4.255c1.432-0.363,2.315-1.235,2.673-2.661v-14.895l-1.067-1.073l-3.204,3.203V217.01z"/><polygon class="st1" points="272.466,198.381 272.466,188.271 268.217,186.673 268.217,200.517 269.296,201.584  "/><path class="st1" d="M270.873,221.265h15.962l-1.582-4.255h-12.787l-4.237,1.588C268.574,220.035,269.458,220.901,270.873,221.265"/><polygon class="st1" points="272.466,205.839 269.296,202.636 268.217,203.709 268.217,217.536 272.466,215.942  "/><path class="st1" d="M286.835,187.21l1.6-4.255h-17.501c-1.42,0.352-2.303,1.241-2.66,2.661l4.26,1.594H286.835z"/><polygon class="st1" points="288.435,202.109 286.31,199.979 272.466,199.979 270.358,202.109 272.466,204.246 286.31,204.246  "/><path class="st1" d="M308.752,242.729H203.198V121.614h105.554V242.729z M299.058,283.298h-7.213c-4.92,0-8.89-3.986-8.89-8.884   c0-4.903,3.986-8.901,8.89-8.901h7.213c4.92,0,8.89,3.998,8.89,8.901C307.947,279.312,303.967,283.298,299.058,283.298z    M335.992,124.578c0-24.551-19.904-44.444-44.443-44.444H220.43c-24.539,0-44.443,19.899-44.443,44.444v96.111   c0,0.486,0.056,0.95,0.078,1.437c-0.034,0.934-0.078,1.879-0.078,2.829v25.009c0,37.075,25.227,68.251,59.45,77.325v-1.219   c0-7.789,5.759-14.264,13.245-15.387v-26.598c0-2.018,0.816-3.852,2.142-5.171c1.325-1.325,3.159-2.147,5.172-2.147   c2.023,0,3.852,0.822,5.177,2.147c1.32,1.319,2.142,3.153,2.142,5.171v26.592c7.486,1.124,13.257,7.599,13.257,15.393v1.213   c34.206-9.074,59.434-40.25,59.434-77.324v-25.004c0-0.962-0.039-1.906-0.067-2.835c0.011-0.48,0.067-0.944,0.067-1.431v-96.111   H335.992z"/><path class="st0" d="M259.953,322.374c0,2.595-1.772,4.697-3.958,4.697c-2.181,0-3.959-2.103-3.959-4.697v-36.688   c0-2.589,1.778-4.696,3.959-4.696c2.186,0,3.958,2.107,3.958,4.696V322.374z"/></g></svg>